<svg xmlns="http://www.w3.org/2000/svg" width="900" height="540" viewBox="0 0 900 540">
    <style>
        text { font-family: Arial, sans-serif; font-size: 13px; }
        .axis, .tick { stroke: black; stroke-width: 1; fill: none; }
        .line { stroke: black; stroke-width: 2; fill: none; }
        circle { fill: black; }
    </style>
    <rect x="0" y="0" width="900" height="540" fill="white"/>
    <text x="450.0" y="24" text-anchor="middle">Runtime Across 10 Input Files </text>
    <line class="axis" x1="80" y1="470" x2="860" y2="470"/>
    <line class="axis" x1="80" y1="470" x2="80" y2="40"/>
    <line x1="80.0" y1="470" x2="80.0" y2="476"/>
    <text x="80.0" y="494" text-anchor="middle">2409</text>
    <line x1="275.0" y1="470" x2="275.0" y2="476"/>
    <text x="275.0" y="494" text-anchor="middle">4470</text>
    <line x1="470.0" y1="470" x2="470.0" y2="476"/>
    <text x="470.0" y="494" text-anchor="middle">6532</text>
    <line x1="665.0" y1="470" x2="665.0" y2="476"/>
    <text x="665.0" y="494" text-anchor="middle">8594</text>
    <line x1="860.0" y1="470" x2="860.0" y2="476"/>
    <text x="860.0" y="494" text-anchor="middle">10656</text>
    <line x1="74" y1="470.0" x2="80" y2="470.0"/>
    <text x="68" y="474.0" text-anchor="end">0.000</text>
    <line x1="74" y1="362.5" x2="80" y2="362.5"/>
    <text x="68" y="366.5" text-anchor="end">5.859</text>
    <line x1="74" y1="255.0" x2="80" y2="255.0"/>
    <text x="68" y="259.0" text-anchor="end">11.719</text>
    <line x1="74" y1="147.5" x2="80" y2="147.5"/>
    <text x="68" y="151.5" text-anchor="end">17.578</text>
    <line x1="74" y1="40.0" x2="80" y2="40.0"/>
    <text x="68" y="44.0" text-anchor="end">23.438</text>
    <polyline class="line"
              points="255.6,40.0 471.8,341.0 185.6,338.5 561.5,338.1 860.0,284.6 113.2,338.2 80.0,340.9 230.1,342.3 667.8,338.7 186.6,342.2"/>
    <circle cx="255.6" cy="40.0" r="4"/>
    <circle cx="471.8" cy="341.0" r="4"/>
    <circle cx="185.6" cy="338.5" r="4"/>
    <circle cx="561.5" cy="338.1" r="4"/>
    <circle cx="860.0" cy="284.6" r="4"/>
    <circle cx="113.2" cy="338.2" r="4"/>
    <circle cx="80.0" cy="340.9" r="4"/>
    <circle cx="230.1" cy="342.3" r="4"/>
    <circle cx="667.8" cy="338.7" r="4"/>
    <circle cx="186.6" cy="342.2" r="4"/>
    <text x="450.0" y="520" text-anchor="middle">DP table size (|A| × |B|)</text>
    <text x="20" y="270.0" text-anchor="middle" transform="rotate(-90 20 270.0)">Average runtime (ms)</text>
</svg>